<svg xmlns="http://www.w3.org/2000/svg" width="123.269" height="152.916" viewBox="0 0 123.269 152.916">
  <g id="logo" transform="translate(-136.745 -74.584)">
    <path id="Unión_4" data-name="Unión 4" d="M997.481,652.672a54.031,54.031,0,0,1-24.862-78.247l.062-.1.011-.118a45.575,45.575,0,0,1,18.487-32.55l-.766.326v-6.354s-6.608,1.779-7.115-10.165,3.3-19.823,7.115-21.348,10.165,12.453,10.165,12.453,6.1,15.5-2.033,16.264l1.572,3.734a45.646,45.646,0,0,1,34.251-.619q.775.3,1.537.625l1.575-3.74c-8.132-.762-2.033-16.264-2.033-16.264s6.353-13.978,10.166-12.453,7.624,9.4,7.115,21.348-7.115,10.165-7.115,10.165v6.354l-.822-.349q1.707,1.247,3.306,2.658a45.446,45.446,0,0,1,15,28.078l.016.118.067.1a54.02,54.02,0,0,1-65.7,80.087ZM977.5,610.916a41,41,0,1,0,41-41A41.047,41.047,0,0,0,977.5,610.916Z" transform="translate(-819 -429.416)" fill="#7bd5e4"/>
    <g id="Elipse_141" data-name="Elipse 141" transform="translate(167 120)" fill="#7bd5e4" stroke="#fff" stroke-width="5">
      <circle cx="7.5" cy="7.5" r="7.5" stroke="none"/>
      <circle cx="7.5" cy="7.5" r="5" fill="none"/>
    </g>
    <g id="Elipse_142" data-name="Elipse 142" transform="translate(216 120)" fill="#7bd5e4" stroke="#fff" stroke-width="5">
      <circle cx="7.5" cy="7.5" r="7.5" stroke="none"/>
      <circle cx="7.5" cy="7.5" r="5" fill="none"/>
    </g>
    <ellipse id="Elipse_143" data-name="Elipse 143" cx="8" cy="2.5" rx="8" ry="2.5" transform="translate(192 127)" fill="#fff"/>
    <g id="Grupo_99" data-name="Grupo 99">
      <path id="Trazado_111" data-name="Trazado 111" d="M-725.5-376.689s13.836-3.356,15.822-2.6-15.959,3.973-16.507,5.069-5.137,1.438-5.069,0S-725.5-376.689-725.5-376.689Z" transform="translate(964 504)" fill="#7bd5e4"/>
      <path id="Trazado_112" data-name="Trazado 112" d="M-724.439-370.062s18.288-2.4,20.206-1.507-7.6,1.575-19.8,2.877S-724.439-370.062-724.439-370.062Z" transform="translate(964 504)" fill="#7bd5e4"/>
      <path id="Trazado_113" data-name="Trazado 113" d="M-723.617-362.889s14.178-.818,16.028,1.986-5.891-.993-16.507-.526S-723.617-362.889-723.617-362.889Z" transform="translate(964 504.541)" fill="#7bd5e4"/>
    </g>
    <g id="Grupo_98" data-name="Grupo 98">
      <path id="Trazado_114" data-name="Trazado 114" d="M-715.279-376.689s-13.836-3.356-15.822-2.6,15.959,3.973,16.507,5.069,5.137,1.438,5.069,0S-715.279-376.689-715.279-376.689Z" transform="translate(873.539 504)" fill="#7bd5e4"/>
      <path id="Trazado_115" data-name="Trazado 115" d="M-709.1-370.062s-18.288-2.4-20.206-1.507,7.6,1.575,19.8,2.877S-709.1-370.062-709.1-370.062Z" transform="translate(866.3 504)" fill="#7bd5e4"/>
      <path id="Trazado_116" data-name="Trazado 116" d="M-712.392-362.889s-14.178-.818-16.028,1.986,5.891-.993,16.507-.526S-712.392-362.889-712.392-362.889Z" transform="translate(868.768 504.541)" fill="#7bd5e4"/>
    </g>
    <circle id="Elipse_144" data-name="Elipse 144" cx="2.5" cy="2.5" r="2.5" transform="translate(174 162)" fill="#fff"/>
    <path id="Unión_5" data-name="Unión 5" d="M964,512.041a1,1,0,0,1,.041-.283h0s1.686-7.54,8.078-7.749a9.523,9.523,0,0,1,8.721,4.485,1,1,0,0,1,.064.112c.026.047.038.072.038.072l-.005,0a1,1,0,0,1-1.678,1.028c-2.9-1.668-3.381-1.4-6.9-.951-3.2.408-5.957,3.206-6.48,3.765a1,1,0,0,1-1.877-.481Z" transform="translate(-797 -342.001)" fill="#7bd5e4"/>
    <path id="Unión_7" data-name="Unión 7" d="M0,1a1,1,0,0,0,.041.283h0s1.686,7.54,8.078,7.749a9.523,9.523,0,0,0,8.721-4.485,1,1,0,0,0,.064-.112c.026-.047.038-.072.038-.072l-.005,0a1,1,0,0,0-1.678-1.028c-2.9,1.668-3.381,1.4-6.9.951C5.158,3.876,2.4,1.078,1.877.519A1,1,0,0,0,0,1Z" transform="translate(231 171.04) rotate(180)" fill="#7bd5e4"/>
    <path id="Unión_6" data-name="Unión 6" d="M964,512.041a1,1,0,0,1,.041-.283h0s1.686-7.54,8.078-7.749a9.523,9.523,0,0,1,8.721,4.485,1,1,0,0,1,.064.112c.026.047.038.072.038.072l-.005,0a1,1,0,0,1-1.678,1.028c-2.9-1.668-3.381-1.4-6.9-.951-3.2.408-5.957,3.206-6.48,3.765a1,1,0,0,1-1.877-.481Z" transform="translate(-633.683 -549.772) rotate(13)" fill="#7bd5e4"/>
  </g>
</svg>
