<svg xmlns="http://www.w3.org/2000/svg" width="83.5" height="37.57" viewBox="0 0 83.5 37.57">
  <g id="Grupo_145" data-name="Grupo 145" transform="translate(-244.292 -431.443)">
    <g id="Grupo_144" data-name="Grupo 144" transform="translate(244.292 431.443)">
      <g id="Grupo_143" data-name="Grupo 143" transform="translate(0)">
        <g id="Grupo_100" data-name="Grupo 100" transform="translate(15.353 22.827)">
          <path id="Trazado_120" data-name="Trazado 120" d="M389.424,646.807v-.056h-.055l-.3-.055.351.111" transform="translate(-389.073 -646.696)" fill="#fff"/>
        </g>
        <g id="Grupo_101" data-name="Grupo 101" transform="translate(30.947 31.41)">
          <path id="Trazado_121" data-name="Trazado 121" d="M537.879,728.244a1,1,0,0,1,.869.462l.518-.314a1.509,1.509,0,0,0-1.387-.758,1.388,1.388,0,0,0-1.036.351,1.15,1.15,0,0,0-.518.981c0,.555.426.962,1.184,1.332l.37.148c.555.259.869.573.869.98l-.259.721-.721.3-.721-.24-.259-.722-.666.148a1.518,1.518,0,0,0,.518,1.036,1.752,1.752,0,0,0,1.073.407,1.942,1.942,0,0,0,1.239-.462l.462-1.184c0-.666-.407-1.184-1.295-1.535l-.407-.167c-.462-.2-.721-.462-.721-.758a.639.639,0,0,1,.315-.518l.573-.2" transform="translate(-536.122 -727.634)"/>
        </g>
        <g id="Grupo_102" data-name="Grupo 102" transform="translate(34.443 31.502)">
          <path id="Trazado_122" data-name="Trazado 122" d="M571.032,729.117h1.239v-.61H569.09v.61h1.276v4.625h.666v-4.625" transform="translate(-569.09 -728.506)"/>
        </g>
        <g id="Grupo_103" data-name="Grupo 103" transform="translate(38.032 31.502)">
          <path id="Trazado_123" data-name="Trazado 123" d="M606.778,731.854v-3.348h-.666V731.6c0,1.073-.426,1.628-1.277,1.628-.832,0-1.239-.555-1.239-1.628v-3.089h-.666v3.348a1.983,1.983,0,0,0,.518,1.443,1.9,1.9,0,0,0,1.387.555,1.922,1.922,0,0,0,1.425-.555,2.064,2.064,0,0,0,.518-1.443" transform="translate(-602.93 -728.506)"/>
        </g>
        <g id="Grupo_104" data-name="Grupo 104" transform="translate(42.712 31.502)">
          <path id="Trazado_124" data-name="Trazado 124" d="M648.19,728.506h-1.128v5.235h1.073l-.148-.61h-.259v-4.014h.259c1.628,0,2.46.685,2.46,2.016s-.832,2-2.46,2l.148.61a2.991,2.991,0,0,0,2.09-.666,2.65,2.65,0,0,0,0-3.959,3.321,3.321,0,0,0-2.035-.61" transform="translate(-647.062 -728.506)"/>
        </g>
        <g id="Grupo_105" data-name="Grupo 105" transform="translate(47.373 31.502)">
          <path id="Trazado_125" data-name="Trazado 125" d="M691.686,728.506h-.666v5.235h.666v-5.235" transform="translate(-691.02 -728.506)"/>
        </g>
        <g id="Grupo_106" data-name="Grupo 106" transform="translate(48.65 31.41)">
          <path id="Trazado_126" data-name="Trazado 126" d="M708.55,730.353a2.453,2.453,0,0,0-.814-1.905,2.574,2.574,0,0,0-1.942-.814,2.393,2.393,0,0,0-1.905.814l.407.407a2.067,2.067,0,0,1,1.5-.61,2.092,2.092,0,0,1,1.535.61,2.269,2.269,0,0,1,.555,1.5,2.084,2.084,0,0,1-2.09,2.09,1.944,1.944,0,0,1-1.443-.61,2.056,2.056,0,0,1-.61-1.48,2.269,2.269,0,0,1,.555-1.5l-.407-.407a2.409,2.409,0,0,0-.832,1.905,2.511,2.511,0,0,0,.832,1.942,2.552,2.552,0,0,0,1.905.777,2.665,2.665,0,0,0,1.942-.777,2.558,2.558,0,0,0,.814-1.942" transform="translate(-703.056 -727.634)"/>
        </g>
        <g id="Grupo_107" data-name="Grupo 107" transform="translate(56.456 31.41)">
          <path id="Trazado_127" data-name="Trazado 127" d="M781.034,729.058l.462-.407a2.645,2.645,0,0,0-2.109-1.017,2.715,2.715,0,0,0-2.719,2.719,2.511,2.511,0,0,0,.777,1.887,2.374,2.374,0,0,0,1.85.832,2.465,2.465,0,0,0,2.516-2.516v-.2H779.7v.555h1.387l-.573,1.147-1.184.462a1.819,1.819,0,0,1-1.424-.684,2.174,2.174,0,0,1-.629-1.48,2.085,2.085,0,0,1,.629-1.5,1.909,1.909,0,0,1,1.48-.666,2,2,0,0,1,1.646.869" transform="translate(-776.668 -727.634)"/>
        </g>
        <g id="Grupo_108" data-name="Grupo 108" transform="translate(62.153 31.502)">
          <path id="Trazado_128" data-name="Trazado 128" d="M830.394,728.506v5.235h.666v-2.516h2.516v2.516h.61v-5.235h-.61v2.109H831.06v-2.109h-.666" transform="translate(-830.394 -728.506)"/>
        </g>
        <g id="Grupo_109" data-name="Grupo 109" transform="translate(66.87 31.502)">
          <path id="Trazado_129" data-name="Trazado 129" d="M875.54,733.741v-5.235h-.666v5.235h.666" transform="translate(-874.875 -728.506)"/>
        </g>
        <g id="Grupo_110" data-name="Grupo 110" transform="translate(68.461 31.502)">
          <path id="Trazado_130" data-name="Trazado 130" d="M890.542,728.506h-.666v5.235h1.239l1.276-.3a1.378,1.378,0,0,0,.573-1.147l-.315-.87a1.227,1.227,0,0,0-.758-.462v-.037a1.019,1.019,0,0,0,.555-.98c0-.98-.61-1.443-1.905-1.443v.573h.167c.758,0,1.128.3,1.128.869,0,.555-.37.869-1.128.869h-.167v.518h.425c.869,0,1.332.3,1.332.925,0,.611-.407.925-1.239.925h-.518v-4.107" transform="translate(-889.876 -728.506)"/>
        </g>
        <g id="Grupo_111" data-name="Grupo 111" transform="translate(72.272 31.502)">
          <path id="Trazado_131" data-name="Trazado 131" d="M925.81,733.741h2.257v-.61H926.42v-4.624h-.61v5.235" transform="translate(-925.81 -728.506)"/>
        </g>
        <g id="Grupo_112" data-name="Grupo 112" transform="translate(74.88 31.502)">
          <path id="Trazado_132" data-name="Trazado 132" d="M951.071,733.741v-5.235h-.666v5.235h.666" transform="translate(-950.405 -728.506)"/>
        </g>
        <g id="Grupo_113" data-name="Grupo 113" transform="translate(23.714 22.827)">
          <path id="Trazado_133" data-name="Trazado 133" d="M468.324,646.7v.832h3.811a7.372,7.372,0,0,1-1.813,2.756,6.069,6.069,0,0,1-2.4,1.591l.518.684a7.735,7.735,0,0,0,2.923-2.22l2.257,2.257.666-.721-2.46-2.146a8.653,8.653,0,0,0,1.443-3.034h-4.939" transform="translate(-467.917 -646.696)"/>
        </g>
        <g id="Grupo_114" data-name="Grupo 114" transform="translate(30.189 22.42)">
          <path id="Trazado_134" data-name="Trazado 134" d="M531.43,644.56H534a4.807,4.807,0,0,1-.888,1.942l-1.683-1.073-.573.555,1.7,1.128a6.567,6.567,0,0,1-3.126,1.5l.462.721a6.205,6.205,0,0,0,5.124-5.494h-3.126l.407-.777-.869-.2a5.083,5.083,0,0,1-2.46,2.867l.555.629,1.905-1.794" transform="translate(-528.97 -642.858)"/>
        </g>
        <g id="Grupo_115" data-name="Grupo 115" transform="translate(36.386 22.161)">
          <path id="Trazado_135" data-name="Trazado 135" d="M597.151,656.292l-.832-.351a6.018,6.018,0,0,1-1.776,2.978,5.68,5.68,0,0,1-3.126.98l.2.87a6.819,6.819,0,0,0,3.644-1.332,8.489,8.489,0,0,0,1.887-3.145" transform="translate(-590.992 -654.295)"/>
          <path id="Trazado_136" data-name="Trazado 136" d="M640.193,641.489l-.351-1.073-.629.111.407,1.128.573-.167" transform="translate(-633.719 -640.417)"/>
          <path id="Trazado_137" data-name="Trazado 137" d="M587.72,661.174l-.314.777,2.053.814.314-.814-2.053-.777" transform="translate(-587.406 -658.973)"/>
          <path id="Trazado_138" data-name="Trazado 138" d="M593.164,645.824l-.351.758a13.029,13.029,0,0,1,2.053.777l.352-.777-2.053-.758" transform="translate(-592.24 -645.251)"/>
          <path id="Trazado_139" data-name="Trazado 139" d="M629.619,641.088l.352,1.184.61-.148-.351-1.184-.61.148" transform="translate(-625.142 -640.884)"/>
        </g>
        <g id="Grupo_116" data-name="Grupo 116" transform="translate(49.741 22.161)">
          <path id="Trazado_140" data-name="Trazado 140" d="M719.455,645.824l-.351.758a8.912,8.912,0,0,1,2,.777l.407-.777-2.053-.758" transform="translate(-718.493 -645.251)"/>
          <path id="Trazado_141" data-name="Trazado 141" d="M713.7,661.174l-.352.777,2.053.814.351-.814a7.69,7.69,0,0,0-2.053-.777" transform="translate(-713.347 -658.973)"/>
          <path id="Trazado_142" data-name="Trazado 142" d="M723.406,656.292l-.777-.351a6.31,6.31,0,0,1-1.794,2.978,5.628,5.628,0,0,1-3.126.98l.2.87a6.393,6.393,0,0,0,3.589-1.332,7.256,7.256,0,0,0,1.905-3.145" transform="translate(-717.246 -654.295)"/>
          <path id="Trazado_143" data-name="Trazado 143" d="M765.874,641.656l.61-.167-.352-1.073-.629.111.37,1.128" transform="translate(-759.973 -640.417)"/>
          <path id="Trazado_144" data-name="Trazado 144" d="M756.262,642.271l.629-.148-.37-1.184-.61.148.351,1.184" transform="translate(-751.397 -640.884)"/>
        </g>
        <g id="Grupo_117" data-name="Grupo 117" transform="translate(56.77 22.013)">
          <path id="Trazado_145" data-name="Trazado 145" d="M831.842,640.039l-.315-1.017-.61.148.314,1.036.61-.166" transform="translate(-825.479 -639.021)"/>
          <path id="Trazado_146" data-name="Trazado 146" d="M784.72,640.617l.241-.055-.3-1.017-.666.148.3.925h-4.662v.814h4.625a4.246,4.246,0,0,1-1.7,3.145l-2.312.814.462.814c2.83-.61,4.31-2.46,4.458-5.586h-.444" transform="translate(-779.633 -639.489)"/>
        </g>
        <g id="Grupo_118" data-name="Grupo 118" transform="translate(63.892 22.623)">
          <path id="Trazado_147" data-name="Trazado 147" d="M854.441,644.777h-.888V647.9a1.941,1.941,0,0,1-.906,1.85l-2.368.462.259.832,1.739-.314,1.073-.518a3.13,3.13,0,0,0,1.091-2.664v-2.775" transform="translate(-849.909 -644.777)"/>
          <path id="Trazado_148" data-name="Trazado 148" d="M847.622,645.824h-.832v4h.832v-4" transform="translate(-846.79 -645.713)"/>
        </g>
        <g id="Grupo_119" data-name="Grupo 119" transform="translate(68.979 22.161)">
          <path id="Trazado_149" data-name="Trazado 149" d="M896.517,642.267l.666-1.7-.777-.148a6.184,6.184,0,0,1-1.646,3.034l.315.721.666-.666V647.3h.777v-5.032" transform="translate(-894.76 -640.417)"/>
          <path id="Trazado_150" data-name="Trazado 150" d="M914.17,640.417a5.386,5.386,0,0,1-1.443,2.664l.462.684,1.128-1.591h.3V647.3h.777v-1.591h2.257v-.721h-2.257v-1.073h2.257v-.721h-2.257v-1.017h2.423v-.721h-3.145l.314-.925-.814-.111" transform="translate(-910.822 -640.417)"/>
        </g>
        <g id="Grupo_120" data-name="Grupo 120" transform="translate(76.637 22.42)">
          <path id="Trazado_151" data-name="Trazado 151" d="M973.256,642.858v2.571h5.031v-2.571l-.721.666v1.239h-3.552v-1.239h3.552l.721-.666h-5.031" transform="translate(-972.59 -642.858)"/>
          <path id="Trazado_152" data-name="Trazado 152" d="M969.122,675.95v.315h.666v-3.4h-2.812V676.3h.666v-.352h1.48v-.684h-1.48v-1.739h1.48v1.739" transform="translate(-966.977 -669.68)"/>
          <path id="Trazado_153" data-name="Trazado 153" d="M1001.155,675.95v.352h.721v-3.441H998.9V676.3h.721v-2.775h1.535v1.739h-1.535v.684h1.535" transform="translate(-995.513 -669.68)"/>
        </g>
        <g id="Grupo_121" data-name="Grupo 121" transform="translate(43.174 22.475)">
          <path id="Trazado_154" data-name="Trazado 154" d="M651.423,644.566v.814h3.126a9.73,9.73,0,0,1-3.089,3.089l.463.7a10.413,10.413,0,0,0,2.479-2.2l.647-.925v3.644h.832v-4.31h1.646v-.814h-1.7v-1.184h-.777v1.184h-3.626" transform="translate(-651.423 -643.382)"/>
        </g>
        <g id="Grupo_122" data-name="Grupo 122" transform="translate(23.455 30.022)">
          <path id="Trazado_155" data-name="Trazado 155" d="M525.52,714.644v-.092H465.476v.092H525.52" transform="translate(-465.476 -714.551)"/>
        </g>
        <g id="Grupo_123" data-name="Grupo 123" transform="translate(23.307 11.08)">
          <path id="Trazado_156" data-name="Trazado 156" d="M464.893,536.022v-.093h-.666l-.148.093v.055l.352-.055.37.055.093-.055" transform="translate(-464.08 -535.93)"/>
        </g>
        <g id="Grupo_124" data-name="Grupo 124" transform="translate(12.375 16.112)">
          <path id="Trazado_157" data-name="Trazado 157" d="M364.429,585.17l-.055-.055v-.148l-.056-.167v-.092l-.092-.2-.055-.166-.055-.037v-.111l-.056-.056-.092-.2-.055-.037-.092-.167-.111-.092-.814-.259-.685.055-.351.111-.259.185-.056.111-.037.056-.056.111-.055.037v.056l-.055.037v.056l-.037.055v.148l-.055.111v.148l-.056.111v.093h-.055v.259l-.056.148-.092.111v.055h.056l.092.148v.462h.055v.055l.056.092v.055l.092.148.111-.092v-.056l-.055-.092v-.2l-.055-.056v-.721l.055-.055v-.093h.055V584.6l.056-.037v-.167l.037-.055v-.148h.056l.111-.185.093-.111.832-.315.5.056.315.148.2.222h.055v.037l.148.3.056.055v.074l.055.093.056.037.037.166v.037l.056.056v.167l.055.037v.2l.055.222v.24l-.055.111-.111.148-.092.056-.259.2-.259.148-.611.259-.314.055-.555-.092-.166-.055h-.037l-.111-.111-.148-.093-.056-.055-.111.092.462.37.314.093.407.055.777-.2.555-.314.37-.3.092-.148.056-.056h.314l.037-.111-.148-.092-.092-.111-.056-.092v-.315" transform="translate(-360.988 -583.376)"/>
        </g>
        <g id="Grupo_125" data-name="Grupo 125" transform="translate(9.656 16.574)">
          <path id="Trazado_158" data-name="Trazado 158" d="M335.347,588.458v.037l.092.056.055-.092V588.4l.056-.111V588.2l.055-.111V588l.055-.167v-.037l-.055-.056-.055.056v.037h-.056V588h-.055v.2H335.4v.037l-.055.222" transform="translate(-335.347 -587.737)"/>
        </g>
        <g id="Grupo_126" data-name="Grupo 126" transform="translate(9.97 17.074)">
          <path id="Trazado_159" data-name="Trazado 159" d="M338.515,592.447h-.166l-.037.13.037.092h.111l.055-.092v-.13" transform="translate(-338.312 -592.447)"/>
        </g>
        <g id="Grupo_127" data-name="Grupo 127" transform="translate(10.266 17.24)">
          <path id="Trazado_160" data-name="Trazado 160" d="M341.251,594.017H341.1v.056l.111.093.037-.056v-.092" transform="translate(-341.103 -594.017)"/>
        </g>
        <g id="Grupo_128" data-name="Grupo 128" transform="translate(10.581 17.333)">
          <path id="Trazado_161" data-name="Trazado 161" d="M344.217,594.889h-.092l-.055.111.055.055.092.037.056-.037v-.111l-.056-.056" transform="translate(-344.069 -594.889)"/>
        </g>
        <g id="Grupo_129" data-name="Grupo 129" transform="translate(12.986 17.333)">
          <path id="Trazado_162" data-name="Trazado 162" d="M366.745,595.351v.518l.055.055.148.2h.259l.111-.056.092-.148v-.666l-.148.148.056.055-.056.093-.055-.037v-.111h.055l.148-.148-.056-.166-.037-.092-.111-.111-.2.056-.2.2v.111l-.055.093" transform="translate(-366.745 -594.889)"/>
        </g>
        <g id="Grupo_130" data-name="Grupo 130" transform="translate(7.196 18.979)">
          <path id="Trazado_163" data-name="Trazado 163" d="M312.812,610.672v-.056l-.055-.092-.148-.111-.314.056-.056.092-.055.055v.111l-.037.055.2.092.407-.092.055-.111" transform="translate(-312.147 -610.413)"/>
        </g>
        <g id="Grupo_131" data-name="Grupo 131" transform="translate(13.392 21.236)">
          <path id="Trazado_164" data-name="Trazado 164" d="M370.638,631.695l-.056.166v.037l.167.167.2-.167-.055-.037,1.128.037v.055h-.814l-.259-.055-.2.167.666.092,4.606.315.314.092h.314l1.017.2h.259l.055-.037-.111-.167-.758-.148-.721-.055-.462-.092-5.29-.573" transform="translate(-370.582 -631.695)"/>
        </g>
        <g id="Grupo_132" data-name="Grupo 132" transform="translate(11.765 22.272)">
          <path id="Trazado_165" data-name="Trazado 165" d="M355.9,641.463h-.666l.037.037.259.167,1.091.092,1.073.259v-.092l-.166-.167-.5-.037-.462-.167-.666-.092" transform="translate(-355.232 -641.463)"/>
        </g>
        <g id="Grupo_133" data-name="Grupo 133" transform="translate(11.654 21.902)">
          <path id="Trazado_166" data-name="Trazado 166" d="M363.324,640.287v-.093l-.111-.111-.259-.148-.037.2v.056H362.4l-.832-.259-.3-.056-2.627-.777-.24-.093.407.055.666.2h.24l2.941.758.259.111.037-.2-1.628-.407-.314-.111-5.087-1.184-.148-.055-.462-.092h-.2l-.351-.111-.518.055-.056.056.056.092.148-.092.259.092.666.111.37.148,1.165.167.056.037.407.111-.148.056-.111.148h.056l4.569,1.239,1.276.2.37-.111" transform="translate(-354.185 -637.975)"/>
        </g>
        <g id="Grupo_134" data-name="Grupo 134" transform="translate(7.029 23.086)">
          <path id="Trazado_167" data-name="Trazado 167" d="M311,649.342v-.092l-.111-.111-.259.055-.056.056v.037l.426.056" transform="translate(-310.577 -649.138)"/>
        </g>
        <g id="Grupo_135" data-name="Grupo 135" transform="translate(13.152 23.807)">
          <path id="Trazado_168" data-name="Trazado 168" d="M368.315,656.052v.2l.2.148.148-.148-.148-.111.037-.055.629.2h.092l2.423,1.036.148.056.721.407v.056h-.055l-3.237-1.35-.2-.037-.407-.2-.148.148,2.812,1.073.056.055.314.148.259.055.962.407.166.056.3.055.056-.055-.2-.148-.2-.2-1.073-.666-.314-.111-.2-.111L368.814,656l-.407-.056-.093.111" transform="translate(-368.315 -655.941)"/>
        </g>
        <g id="Grupo_136" data-name="Grupo 136" transform="translate(10.932 27.137)">
          <path id="Trazado_169" data-name="Trazado 169" d="M347.7,687.45l-.056-.056-.148-.056h-.111l.055.2.315.167.148.092.148.056.055.111V688l.352.167.222.148h.037l.111.148.092.2v.074l.111.037.148.148.166.111.092.2.055.055h.056l.148.2.462.462v.055l.055.037v.074l.092.093v.037l.111.111v.056l.056.055.037.148.056.055.055.259v.093l.055.2v.111l.056.093.092.111.055.092v.055l.148.148v.056l.055.055v.148l.055.111.055.148v.2l.463.518.037.259v.925l.056.093v.111l.055.055v.3l-.055.056V695l.2.148v.111l-.056.148v.2l.056.055.111-.2V695.4l.037-.055V695.2l-.092-.111.055-.3h-.055v-.315l-.055-.148v-.37l-.056-.352v-.055l.056-.111v-.351l-.518-.518a.152.152,0,0,1-.037-.2l-.055-.259v-.037l-.055-.111v-.111l-.056-.037-.037-.111-.166-.148V691.5l-.056-.055-.037-.093-.056-.2v-.055l-.055-.111v-.259l-.056-.092v-.037h-.037v-.111l-.056-.055-.111-.167-.056-.092-.092-.111v-.037l-.055-.055v-.056l-.148-.111v-.037l-.407-.407-.056-.111-.259-.259-.111-.148v-.055l-.037-.037h-.056l-.111-.111-.093-.167v-.092l-.111-.111-.056-.092-.092-.055-.463-.148-.148-.111h.037v-.093l-.148-.111-.407-.2" transform="translate(-347.383 -687.339)"/>
        </g>
        <g id="Grupo_137" data-name="Grupo 137" transform="translate(4.421 31.334)">
          <path id="Trazado_170" data-name="Trazado 170" d="M288.182,726.94c-.148-.056-.352,0-.61.2l-.111.092-.3.111-.259.259-.518.352-.055.111-.259.259-.037.092-.056.055v.111l.093.092.832-.056.3-.037h.166l.148.092.148.148.2.167.111.148.148.148.056.111.111.111.037.093v.055l.111.093.055.166.056.056.3.148.111-.111h.056v-.758h.037v-.2l.055-.056v-.111l-.055-.092v-.2l-.037-.167v-.148h-.056v-.148l-.055-.056-.111.056.055.3v.314l.055.148v.259h-.055v.573l-.055.092-.093.055-.148-.148v-.056l-.056-.055v-.093l-.111-.111-.148-.2-.055-.055-.056-.093v-.056l-.092-.111-.111-.056-.055-.037-.037-.111-.259-.148-.462-.2-.314.092h-.352v-.148l.666-.462.148-.2.832-.462.148.056.055.037.092.056.056.111.055.055.056.092.037.055v.092h.056v.111l.055.056v.092h.055v.111l.037.056.111-.056v-.148l-.055-.111-.055-.148v-.056l-.037-.148V727.4l-.055-.056v-.055l-.055-.056-.259-.2-.2-.092" transform="translate(-285.981 -726.92)"/>
        </g>
        <g id="Grupo_138" data-name="Grupo 138" transform="translate(9.656 34.998)">
          <path id="Trazado_171" data-name="Trazado 171" d="M337.807,762.14v-.055l-.055-.056v-.037l-.462-.463-.2-.056-.259.056-.462.24-.351.37v.092l-.259.259-.2.167-.056.111-.055.037-.092.148v.111l.055.055.555.092h.61v-.148l-.352-.055H335.7l-.037-.092v-.111l.037-.037.111-.074.055-.037.3-.259.055-.055.2-.259.111-.056a.987.987,0,0,1,.462-.3h.259l.24.259.111.148v.092h.056v.111l.037.111v.092l.055.518v.092h.055v.315l.056.148v.167l-.056.037h-.2l-.314-.3v-.055h-.037l-.167-.148-.055-.111h-.037l-.425-.148v.2h.055l.259.092.148.167.111.148h.056l.092.148.111.111.351.111.259-.055.055-.111v-.148l-.055-.259v-.259l-.056-.259v-.259l-.037-.24v-.111l-.055-.037V762.2l-.056-.055" transform="translate(-335.347 -761.474)"/>
        </g>
        <g id="Grupo_139" data-name="Grupo 139" transform="translate(30.54 15.02)">
          <path id="Trazado_172" data-name="Trazado 172" d="M532.34,573.306l.555.351.111.148.2.167-.2.2v.092l.314.111.093.092v.055l.111.111.037.093.111.074.055.092.093.148.056.055.111.167v.185h-.056l-.055.111v.037l.111.13.092.129v.056l.259.259.111.148v.056l.092.2v.2l.055.056.055.111v.037h.037v.259l.111.2v.055l.055.111.056.037v.111l.037.111.111.148v.055l.055.092.037.056v.148h.055v.111l.056.148v.111h.055v.093l.056.111.037.055v.037l.056.055.055.148.055.111.037.055.055.093v.055l.056.148v.055l.055.2.056.111v.092l.037.167v.092h.056v.167l.111.2v.259h.037v.092h.2v-.092h-.037v-.167h-.055V580.8l-.056-.056v-.259l-.055-.111-.037-.037v-.167l-.055-.2v-.092l-.055-.111v-.055l-.056-.037v-.111l-.037-.055-.056-.148V579.3h-.055v-.093l-.056-.055v-.111l-.055-.037-.092-.314v-.056l-.055-.055-.056-.092v-.056l-.148-.314v-.093l-.056-.056-.055-.148v-.055l-.037-.056-.055-.092v-.111L535,577.45l-.093-.2v-.092h-.056v-.111l-.055-.148v-.111l-.056-.037v-.056l-.055-.111v-.055l-.037-.092v-.111l-.055-.037-.055-.111-.092-.148-.056-.111-.148-.148.037-.111v-.148l-.037-.148-.056-.093h-.055v-.13h-.055l-.056-.093-.148-.2-.056-.111-.2-.3-.056-.055v-.037l-.092-.167-.055-.056v-.111l-.056-.037-.092-.167-.055-.093-.259-.259-.148-.2h-.055l-.2-.167-.259.111.055.111" transform="translate(-532.284 -573.084)"/>
        </g>
        <g id="Grupo_140" data-name="Grupo 140" transform="translate(12.468 8.158)">
          <path id="Trazado_173" data-name="Trazado 173" d="M362.841,508.665l-.093-.093v-.055l-.056-.056-.111-.055-.092.111.092.111.111.3v.2h-.055v.056l-.055.055-.092.148-.259-.093-.055-.111-.092-.092v-.056l-.055-.111v-.055h.055v-.148l.037-.056.055-.093.314-.055.092-.111-.2-.037h-.2l-.148.093-.056.056-.111.148v.425l.056.148.055.055.056.093.148.056.407.055.055-.111.148-.148.056-.148v-.425" transform="translate(-361.861 -508.369)"/>
        </g>
        <g id="Grupo_141" data-name="Grupo 141">
          <path id="Trazado_174" data-name="Trazado 174" d="M272.261,431.646V432l.055.148.056.055.055.111v.2l.037.148v.148l.055.111v.462h.055v.314l.056.037v.111l.055.055v.259h.037v.7l.055.055v.111l.056.148v.462l.055.111v.148l.037.056-.037.037.037.111v.407h.055v.666l.055.407v.832l-.055.092v1.036l-.055.055.055.092v.2h-.055v.37l-.037.093v.111l-.055.093v.166l-.666.259a1.454,1.454,0,0,0-.407.148l-.518.092-.462.425v.407l-.056.055v.092l-.055.37-.092.148-.055.148-.056.055-.055.111v.092l-.037.056v.148l.092.055.167-.111.037-.037v-.111l.259.056.518.259a3.494,3.494,0,0,0,.869.407l.111.056.462.148.3.148.315.222v.092h-.259l-.092.111.758.407.61.462v.055l-.037.037-.426-.092-.148.092.2.111a1.4,1.4,0,0,1,.666.314l.518.5.2.167.148.2h.056l-.056-.167-.462-.462-.037-.24-.111-.055-.092-.2-.259-.37-.666-.555-.056-.056.092-.111v-.092l-.3-.2-.167-.166-.352-.241-1.443-.518-.5-.315v-.092l.351.037h.259v-.092l-.056-.056-.61-.111-.259-.2.055-.037.462.092h.148l.462.111h.148l.111-.055-.056-.111-.98-.2-.3-.092.055-.055.092-.056.573.056.869.259.351.148.111-.055v-.092l-.056-.056-.314-.2-.462-.111-1.165-.148-.055-.055.055-.037h.241l.462-.055h.777V441.8l-.462-.111h-.925l-.055-.037.315-.166.555-.2.518-.092.37-.2v-.055l.2-.315v-.2l.055-.055v-1.48l.037-.111-.037-.092.037-.259v-1.5h-.037v-.555l-.055-.407V435.7l-.056-.259v-.259h-.055v-.2l-.055-.111v-.148l-.037-.148v-.832l-.055-.037v-.314l-.056-.111v-.148l-.055-.055v-.351l-.037-.056v-.2l-.055-.056v-.055l-.056-.093V432.2l-.259-.721-.148-.037-.37.092-.092.111-.056.093-.055.056-.092.148-.2.462-.111.111-.092.2-.055.055-.315.407-.055.092-.148.166v.092l-.111.111-.351.666-.056.148-.055.055-.037.111-.055.148-.111.092-.037.111-.055.056-.111.2v.055l-.037.037-.111.314-.111.056v.055l-.093.2-.055.037-.056.111v.056l-.037.148v.056l-.055.055v.092l-.055.056v.148l-.056.111v.148l-.2.407v.055l-.055.055-.2.315-.055.148-.037.056-.055.2-.148.2-.056.2-.055.055-.055.092-.093.167-.055.037v.056l-.055.111v.092l.055.37.352.462.166.148v.055h.037l.055.148.167.259v.259l-.167-.056-.2-.2-.814-.462-.259.259.925.666.259.314.093.092.111.055.056-.111-.315-.3-.407-.314-.259-.259v-.055l-.055-.037.259.148.111.111.2.148.037.055.259.148.111.092.056.111v.148l-.056.111.056.055v.148h-.056l-.166-.055-.906-.666-.259.056.148.148.518.315.056.092-.111-.037-1.332-.2-.314-.111-.3-.056-.055-.055h-.869l-.222-.092v-.148l.167-.166.518-.148.24-.055.056-.093-.148-.055H265.4l-.166.055v.037l-.092.055-.314.055v-.055h.056l.092-.093h.259l.166-.055.407-.2v-.055h-.167l-.24.111-.518.037-.167-.093-.092.2h-.055l.055.093v.222l-.055.092-.055.259-.2.092-.98.111-.037-.2v-.777l.037-.037v-.259l.056-.111-.056-.056v-.148l-.037-.056-.055-.092.055-.111-.37-.2-.2-.148-.037-.055v-.055l-.055-.092v-.37l.055-.148v-.111l.037-.037.111-.222v-.037l.037-.111v-.056l.056-.037.055-.111v-.148l.056-.056v-.148l.092-.37v-.148l.055-.148.055-.111v-.056l.092-.148v-.111l.056-.037V436.1l.055-.055v-.056l.055-.093.055-.055v-.093l.037-.055v-.111l.055-.056v-.092l.055-.055.2-.407.111-.314.037-.037.055-.111.055-.055.148-.3.2-.222.259-.352.055-.092.111-.166.407-.407.055.055.037.093v.111l.055.055v.2l.055.148v.056l.056.148v.462l.037.111v.3l.056.111v.721l.055.092v.055l.056.056v.259l.055.093v.666l.037.111v.61l-.037.055v.555l.037.056v.259l.055.111v.092l.055.055v.407l-.148.314-.925.462-.166.148-.056.111.056.037v.111h.111l.462-.111h.2l.259-.037-.167-.111h-.351V439.9l.315-.148.462-.315.037-.092.111-.573v-.148l-.055-.055v-.61l-.056-.055v-.98l-.037-.093v-.462h.037l-.037-.056v-.666l-.056-.111v-.351l-.055-.092v-.055l-.055-.167v-.2l-.037-.092V434.4l-.055-.092v-.518l-.056-.148V433.5l-.055-.111v-.2l-.092-.2v-.055l-.056-.111v-.037l-.055-.111h-.259l-.351.37h-.056v.092l-.148.148-.167.314-.3.315-.167.3-.2.259-.056.055v.056l-.037.092-.055.2-.055.055v.055l-.093.148v.167l-.111.092v.055l-.055.092-.056.056v.111l-.037.092v.111l-.111.148v.055l-.055.111v.037l-.037.111-.055.055v.092l-.056.167-.111.092v.111l-.037.092v.055l-.056.056v.259l-.055.092v.148l-.037.055v.2l-.055.167-.111.2v.056l-.111.2v.092l-.037.167v.148l.037.092.055.056v.111l.111.092.61.407-.092.259-.721-.351-.425-.111c-.037-.037-.093,0-.148.056l.2.148a.517.517,0,0,1,.407.167l-.148.092-.092.167h.351l.315.037.259.111-.055.111-.407.037-.222.055v.055h.277l.148-.055.2.055v.148l-.056.111-.518.056-.055.092.055.056.222-.056.185-.092.167.037v.166l-.167.092.056.148v.111l-.148.055-.055-.111.2-.055-.056-.148-.3.148c-.259.055-.352.111-.352.166l-.314.148-.056.055-.092-.055.037-.148v-.166l-.037-.092-.573-.148v-.166l-.2-.407-.407-.518-.259-.148-.148-.315-.259-.259v-.092l-.055-.055-.055-.148-.3-.407-.315-.259-.666-.407V437.7l-.055-.111-.055-.037v-.518l-.056-.055v-.056l-.037-.093v-.055l-.056-.148H258.2v-.111l-.092-.148-.056-.111v-.037l-.314-.684v-.092l-.056-.055-.037-.148-.056-.056h-.148l-.111.056v.092l-.055.055-.056.111v.148l-.037.111v.2l-.056.148v.407l-.111.111-.093-.167-.2-.407v-.056l-.055-.093v-.055l-.055-.093-.148-.166h-.111l-.055.111v.092l-.037.111v.148l-.056.111v.462l-.055.148v.315l.055.055h-.055v.3h.055v.314l.056.056v.092l.037.111v1.017l-.3.61v.259l-.056.056v.314l.111-.055.037-.111.055-.037.055-.111.056.055v.055l-.111.2.055.093.056.055h.037v.055h-.037l-.056.093-.111.055-.037-.055v-.351l-.111.055h-.055l.055.148v.259l.056.111v.3l.055.148v.425H256v.3l-.056.055v.315l.056.092v.167l.055.092.037.259.055.111.111.3.092.111.111.2-.2.2-.111.148H256l-.148.111L255.8,444v-.148l-.111-.055-.092.167-.111.2v.037l-.314.314-.092.314-.111.092-.092.166-.111.2-.055.037v.111l-.037.056-.055.092-.111.167v.037l-.037.074-.166.3-.092.092-.111.167v.037l-.092.222-.055.037-.056.111-.055.056-.037.148-.055.111v.111l-.055.093v.092l-.056.111v.055l-.055.111v.129l-.037.111v.111l-.055.2v.092l-.056.111v.167l-.055.037-.2.3-.148.129-1.239.333-.61.37v.092l-.056.111-.055.055v.462l.055.092v.166l-.092.148-.166.462v.055l-.148.2H250.4l-.037-.055-.167-.056H250.1l-.166.056.056.111.055.037.407.111.259.092.055.111v.407l-.055.056-.573.092-1.073.425v.092l.055.111,1.535-.518.111.111-.055.092v.111l-.056.037v.055l-.055.111v.092l-.037.055v.111l-.259.148-.167.148.425-.055.037.055.055.111.056.148v.055l.055.092v.056l.056.167v.037l.037.111v.056l.056.037.055.111-.055.111-.462.092-.259.111-.092.092v.259l.037.055-.037.056-.518.758-.259.166-.259.241-.148.111v.148l-.055.055-.259.2-.092.148-.721.777-.462.37-.259.148-.259.092.111.222-.518.5-.111.167v.037l.055.167-.055.037-.2.259-.092.111-.111.2v.259l-.148.166-.056.13-.092.111v.111l-.055.111v.092l-.37.37v.092l-.3.407v.148l-.055.055v.111l-.056.2v.351l-.148.2-.056.055-.055.092-.037.167-.055.055-.055.148h.055v.092l.055.111v.148l-.055.111v.2l-.055.092v.056l-.055.111v.092l.055.056.111-.092v-.222l.037-.037v-.111l.055-.092v-.315l.056-.111.055-.037.092-.167v-.037l-.055-.111.055-.055.2-.3.2-.222-.092-.2h.055l.814-.351h.315l.351.259.111.092V463l.037.056.259.2h.2l.167-.2v-.111l-.167.055-.037.056-.166-.167v-.037l-.093-.166-.111-.093-.092-.2-.055-.055-.37-.111-.5.111-.2.148-.37.166-.092-.055v-.167l.037-.092h.055v-.111l.056-.148.148-.148.055-.092.111-.111.148-.055.2-.2.2-.167c.148-.092.2-.148.259-.148l.573-.314.092.111v.148l.055.2v.2l-.055.259.055.074v.185h.056v.629l.037.2V463l.167-.055.037-.055.056-.092v-.462l-.056-.111v-.259h-.037v-1.017l-.056-.037V460.8l-.111-.166-.2-.037-.2.092-.055.056-.758.407.092-.314v-.092l.055-.111.407-.3v-.111H246.4l-.111.056.055-.111.259-.259.462-.351.055-.2h-.2V459.3l.463-.407.037-.148.315-.314.666-.462.37-.352.259-.222.407-.24,1.276-.518.666-.148.055.148.093.056.721.2c.259-.111.407-.111.518,0l.407.2.315.092.259.2.259.166.407.352.259.166.259.092.462.314.148-.055-.111-.148-.3-.2-.462-.222-1.128-.869-.925-.3H252.3a.414.414,0,0,0-.315-.167l-.3-.092-.518-.055-.925.148c-.259.111-.462.2-.573.259l-.24.166-.259.037V456.9l.462-.407h.037l.222-.166.037-.092v-.056l.166-.148.148-.259.259-.2.055-.111.092-.148.056-.111.462-.148.055-.055-.111-.148v-.111l.056-.092-.056-.259-.055-.056-.2-.407v-.259l-.037-.148v-.259l.037-.111v-.055l.056-.093v-.111l.055-.037v-.259l.055-.2v-.314l-.055-.111v-.092l.055-.111v-.148l.037-.111v-.037l.055-.111.056-.055V451.2l.055-.111.2-.2-.111-.314-.037-.351.2-.352.2-.055.3.148a.7.7,0,0,1,.462.259v.055l.166.3v.222l.037.092.167-.092v-.37l-.111-.2-.462-.407-.3-.148.148-.111.148-.056h.111v.111h.2l.259-.055.055.055v.092h.611l.055.166-.111.092.37.167v.037l-.055.056v.055a.285.285,0,0,0,.259.092l.037-.092-.148-.148v-.111h.056l-.056-.056-.2-.3-.111-.111-.2-.056-.148-.148V449.2l.351-.314.111.055h.111l.037-.055v-.241h.055v-.277l.056-.092v-.056l.055-.111v-.2l-.167.167v.111l-.037.037-.055.259v.092l-.055-.055.055-.092v-.2l.055-.259v-.148l.037-.167v-.037l.055-.111v-.111l.056-.037v-.093l.092-.222.055-.055.315-.611.055-.037.092-.222.056-.148.092-.167v-.092h.055l.111-.259.148-.259.056-.055.092-.2.111-.148.111-.111v.166l.037.092.111-.148.092-.259.055-.055v-.092h.166l.037.092.166-.092.3-.315V444l.2-.2.425.055.092-.055-.314-.092-.092-.2-.111-.111-.2-.407-.055-.056v-.111l-.037-.037v-.111l-.056-.092v-1.591h-.055v-.166l.055-.037.148-.056.111-.111v-.3h.055l-.055-.167v-.2l-.111-.092-.148-.056v-.167l.259-.462.092-.092v-.055l.056-.056-.056-.092v-.055l-.037-.056V437.9l-.055-.056V437.7l-.056-.055v-.092l-.055-.166v-.758l.055-.055v-.259l.056-.092v-.166l.092.111v.055l.056.037v.055l.055.056v.055l.055.037v.055l.037.056.111.315.055.092.055.055v.721h-.055v.925h.055l.092-.111h.055V437.7l.056-.148v-.314l.037-.351v-.2l.056-.056v-.111h.055v-.61h.056v-.111l.055-.037v-.111h.037l.111.111.056.093v.055l.037.056.056.093v.055l.055.056v.055l.056.148v.055h.037v.092l.056.111v.056H258v.092l.111.111v.092h.037v.37l.056.2v.092l.055.166v.037l.092.056.111.148.721.426.315.3v.111l.037.092h.056v.111l.055.055v.037l.148.167.055.092.055.056.037.111.055.037v.055l.111.167.148.148.148.092.111.055.055.111.093.093.111.259h.055v.111l.037.056.055.148v.055l.092.092v.056l.37.148.056.167-.056.037-.055.111-1.739.666a1.78,1.78,0,0,0-.352.148l-1.184.518-.518.352-.092.111h-.055l-.056.111-.111.092-.037.111-.111.092-.092.055v.056l.037.092.2-.092.426-.407.666-.518.037.055.259-.055,1.128-.574,3.089-.869,1.591-.092,2.46.24h.148l.2.056.111.111-.055.093.2.166-.259.092v.111h.518l.314.055h.3l-.037-.222v-.037l.093-.055v.092h-.093l.037.222.111.092.148.056.055-.111v-.259l.055-.092v-.2l.055-.111v-.518l.037-.148v-.351l-.093-.2-.055-.055-.092-.2-.056-.2-.111-.167-.2-.148-.148-.259V439.4l-.055-.111.055-.056v-.055l.056-.092.037-.055v-.092l.259-.37v-.092l.055-.111.055-.056.093-.148.055-.148v-.167l.111-.2.037-.148.055-.055.166-.3v-.222l.093-.2v-.037l.055-.111v-.111l.055-.037.037-.111v-.092l.055-.111v-.055l.111-.2.092-.093v-.111l.167-.2.037-.111v-.092l.111-.111.148-.351.166-.148.037-.111v-.055l.055-.055.056-.092.055-.148.092-.222.056-.037.407-.629.166-.3.148-.166.092-.2.111-.148.055-.111.055-.037.148-.314.092-.111.167-.241.148-.055.148.055" transform="translate(-244.292 -431.443)"/>
        </g>
        <g id="Grupo_142" data-name="Grupo 142" transform="translate(12.782 8.509)">
          <path id="Trazado_175" data-name="Trazado 175" d="M365.2,511.943l-.055-.2-.2-.055-.056.055-.055.093.055.166.056.092h.037l.167-.037h.055v-.111" transform="translate(-364.826 -511.684)"/>
        </g>
      </g>
    </g>
  </g>
</svg>
